<?xml version="1.0" encoding="UTF-8" standalone="no"?>
<svg
   xmlns:dc="http://purl.org/dc/elements/1.1/"
   xmlns:cc="http://creativecommons.org/ns#"
   xmlns:rdf="http://www.w3.org/1999/02/22-rdf-syntax-ns#"
   xmlns:svg="http://www.w3.org/2000/svg"
   xmlns="http://www.w3.org/2000/svg"
   xmlns:sodipodi="http://sodipodi.sourceforge.net/DTD/sodipodi-0.dtd"
   xmlns:inkscape="http://www.inkscape.org/namespaces/inkscape"
   version="1.1"
   id="Livello_1"
   x="0px"
   y="0px"
   viewBox="0 0 276.07239 253.7"
   xml:space="preserve"
   sodipodi:docname="Modorn Neon Composto.svg"
   width="276.07239"
   height="253.7"
   inkscape:version="1.0.1 (3bc2e813f5, 2020-09-07)"><metadata
   id="metadata79"><rdf:RDF><cc:Work
       rdf:about=""><dc:format>image/svg+xml</dc:format><dc:type
         rdf:resource="http://purl.org/dc/dcmitype/StillImage" /><dc:title></dc:title></cc:Work></rdf:RDF></metadata><defs
   id="defs77" /><sodipodi:namedview
   pagecolor="#ffffff"
   bordercolor="#666666"
   borderopacity="1"
   objecttolerance="10"
   gridtolerance="10"
   guidetolerance="10"
   inkscape:pageopacity="0"
   inkscape:pageshadow="2"
   inkscape:window-width="1920"
   inkscape:window-height="1016"
   id="namedview75"
   showgrid="false"
   fit-margin-top="0"
   fit-margin-left="0"
   fit-margin-right="0"
   fit-margin-bottom="0"
   inkscape:zoom="1.2416667"
   inkscape:cx="15.319766"
   inkscape:cy="152.01565"
   inkscape:window-x="0"
   inkscape:window-y="27"
   inkscape:window-maximized="1"
   inkscape:current-layer="Livello_1" />
<style
   type="text/css"
   id="style2">
	.st0{fill:#1A1A1A;}
	.st1{fill:#B572FF;}
	.st2{fill:#68FFAA;}
	.st3{fill:#FFFFFF;}
</style>

<g
   id="g14"
   transform="translate(-1162.0276,-262.1)">
	<circle
   class="st1"
   cx="1300"
   cy="425"
   r="65"
   id="circle6" />
	<circle
   class="st2"
   cx="1300"
   cy="425"
   r="54"
   id="circle8" />
	<circle
   class="st0"
   cx="1299.5"
   cy="425.5"
   r="43.5"
   id="circle10" />
	<ellipse
   transform="matrix(0.7451,-0.667,0.667,0.7451,56.3704,958.4796)"
   class="st3"
   cx="1282"
   cy="405.5"
   rx="19.9"
   ry="15.3"
   id="ellipse12" />
</g>
<g
   id="g72"
   transform="translate(-1162.0276,-262.1)">
	<g
   id="g46">
		<g
   id="g44">
			<path
   class="st1"
   d="m 1428,348.5 c 6.3,15.7 9.6,31.8 10,48.7 -6.7,0 -13.3,0 -20,0 -0.4,-14.1 -3.1,-27.7 -8.4,-40.9 6.2,-2.6 12.2,-5.2 18.4,-7.8 z"
   id="path16" />
			<path
   class="st1"
   d="m 1200.2,304.9 c 4.7,4.7 9.4,9.4 14.1,14.1 -9.4,10 -17,21.4 -22.6,34.2 -6.2,-2.5 -12.3,-5 -18.5,-7.5 6.6,-15.3 15.6,-28.9 27,-40.8 z"
   id="path18" />
			<path
   class="st1"
   d="m 1394.7,299.7 c -4.7,4.7 -9.4,9.4 -14.1,14.1 -9.8,-9.1 -21,-16.5 -33.5,-22 2.5,-6.2 5,-12.3 7.5,-18.5 15,6.5 28.3,15.4 40.1,26.4 z"
   id="path20" />
			<path
   class="st1"
   d="m 1256.7,290.4 c -2.6,-6.2 -5.2,-12.2 -7.8,-18.3 7,-4.4 38.9,-11 47,-9.7 0,6.6 0,13.1 0,19.9 -13.5,0.4 -26.5,3.1 -39.2,8.1 z"
   id="path22"
   style="fill:#b572fd;fill-opacity:1" />
			<path
   class="st1"
   d="m 1341.4,289.6 c -12.7,-4.7 -25.8,-7.2 -39.4,-7.5 0,-6.7 0,-13.2 0,-20 16.1,0.2 31.7,3.2 46.9,8.9 -2.5,6.3 -4.9,12.4 -7.5,18.6 z"
   id="path24" />
			<path
   class="st1"
   d="m 1407.2,350.7 c -5.6,-12.1 -13,-22.9 -22.1,-32.3 4.7,-4.7 9.4,-9.4 14.1,-14.1 10.9,11.3 19.7,24.2 26.4,38.7 -6.1,2.5 -12.2,5.1 -18.4,7.7 z"
   id="path26" />
			<path
   class="st1"
   d="m 1171,351.3 c 6.1,2.5 12.2,4.9 18.5,7.5 -4.6,12.4 -7.1,25.1 -7.4,38.3 -6.7,0 -13.3,0 -19.9,0 -1.1,-8.8 4.2,-36.1 8.8,-45.8 z"
   id="path28" />
			<path
   class="st1"
   d="m 1243.3,274.3 c 2.6,6.2 5.2,12.2 7.8,18.4 -12,5.5 -22.8,12.8 -32.3,21.8 -4.7,-4.7 -9.3,-9.3 -14.2,-14.1 11.4,-10.9 24.2,-19.5 38.7,-26.1 z"
   id="path30" />
			<path
   class="st1"
   d="m 1184.6,445.2 c -4.4,1.8 -8.6,3.7 -12.9,5.5 -4.4,-6.9 -10.4,-36.6 -9.6,-47.4 6.6,0 13.2,0 19.9,0 0.1,2.1 0.2,4.2 0.4,6.3 0.2,2.2 0.5,4.4 0.7,6.7 0.1,1.5 0.1,3.1 0,4.7 -0.3,8.1 0.1,16.1 1.5,24.2 z"
   id="path32" />
			<path
   class="st1"
   d="m 1429.1,449.1 c -4.3,-1.7 -8.4,-3.4 -12.4,-5 0.3,-3.2 0.7,-6.3 1,-9.5 0.6,-6.9 0.4,-13.7 -0.2,-20.6 -0.1,-1.1 0,-2.2 0.1,-3.3 0.1,-2.4 0.3,-4.9 0.5,-7.4 6.6,0 13.2,0 20,0 -0.5,15.7 -3.4,31 -9,45.8 z"
   id="path34" />
			<path
   class="st1"
   d="m 1203.1,491.5 c -1.2,1.2 -2.3,2.3 -3.4,3.5 -10.7,-11.4 -19.3,-24.2 -25.8,-38.6 4,-1.7 7.9,-3.3 11.9,-5.1 1.7,7.3 3.9,14.2 6.8,21 2.9,6.7 6.4,13.1 10.5,19.2 z"
   id="path36" />
			<path
   class="st1"
   d="m 1399.8,495.6 c -0.9,-1 -1.7,-1.9 -2.7,-2.9 8.9,-12.8 15.1,-27.1 18.4,-42.6 3.8,1.5 7.5,3 11.4,4.6 -6.7,15.3 -15.7,28.9 -27.1,40.9 z"
   id="path38" />
			<path
   class="st1"
   d="m 1204,499.4 c 0.9,-1 1.8,-1.8 2.7,-2.8 5.4,7.1 11.4,13.4 18.1,19.2 -7.5,-4.7 -14.4,-10.2 -20.8,-16.4 z"
   id="path40" />
			<path
   class="st1"
   d="m 1379.8,512.8 c 4.6,-4.9 9.1,-9.8 13.7,-14.7 0.5,0.5 1.2,1.2 1.9,1.9 -4.9,4.7 -10,8.9 -15.6,12.8 z"
   id="path42" />
		</g>
	</g>
	<g
   id="g70">
		<g
   id="g68">
			<path
   class="st2"
   d="m 1302.1,282.3 c 13.6,0.3 26.6,2.7 39.4,7.5 -0.8,1.9 -1.5,3.7 -2.2,5.5 -2.2,5.4 -4.4,10.9 -6.6,16.3 -0.3,0.8 -0.6,1 -1.5,0.8 -9.1,-2.4 -18.4,-3.8 -27.8,-4 -0.4,0 -0.9,-0.1 -1.3,-0.1 0,-8.7 0,-17.3 0,-26 z"
   id="path48" />
			<path
   class="st2"
   d="m 1256.7,290.5 c 12.6,-5 25.6,-7.6 39.2,-8.1 0,8.7 0,17.3 0,25.9 -2.2,0.2 -4.4,0.3 -6.6,0.5 -7.2,0.6 -14.3,2 -21.3,4 -1.6,0.5 -1.6,0.5 -2.3,-1.1 -2.8,-6.7 -5.7,-13.4 -8.5,-20.1 -0.2,-0.3 -0.3,-0.7 -0.5,-1.1 z"
   id="path50" />
			<path
   class="st2"
   d="m 1366.1,328.2 c -8.6,-5.8 -18,-10.5 -28.1,-13.9 3,-7.5 6,-14.9 9,-22.4 12.5,5.5 23.6,12.8 33.4,21.9 -4.7,4.9 -9.4,9.6 -14.3,14.4 z"
   id="path52" />
			<path
   class="st2"
   d="m 1233.3,329.1 c -4.7,-4.7 -9.6,-9.6 -14.4,-14.5 9.5,-9 20.2,-16.3 32.3,-21.8 3.2,7.5 6.3,14.9 9.4,22.1 -4.7,2.2 -9.4,4.1 -14,6.4 -4.5,2.4 -8.9,5.2 -13.3,7.8 z"
   id="path54" />
			<path
   class="st2"
   d="m 1203.9,358.2 c -3.9,-1.6 -8,-3.2 -12.2,-4.9 5.6,-12.8 13.1,-24.1 22.6,-34.2 4.7,4.7 9.3,9.3 13.7,13.7 -4.2,3.9 -8.6,7.7 -12.6,11.9 -3.9,4.3 -7.5,8.9 -11.5,13.5 z"
   id="path56" />
			<path
   class="st2"
   d="m 1407.3,350.8 c -4,1.7 -7.8,3.3 -11.5,4.9 -0.7,0.3 -0.9,-0.2 -1.2,-0.6 -2.8,-3.3 -5.4,-6.6 -8.3,-9.8 -4.3,-4.7 -9,-8.9 -14,-12.7 -0.3,-0.2 -0.5,-0.4 -0.6,-0.5 4.5,-4.5 9,-9 13.6,-13.6 8.9,9.4 16.3,20.2 22,32.3 z"
   id="path58" />
			<path
   class="st2"
   d="m 1182.1,397.3 c 0.3,-13.3 2.8,-26 7.4,-38.4 3.8,1.5 7.5,3 11.3,4.6 -0.2,0.4 -0.4,0.7 -0.6,1 -6.1,10 -10.6,20.5 -13.5,31.8 -0.2,0.7 -0.5,1.1 -1.3,1 -1,-0.1 -2.1,0 -3.3,0 z"
   id="path60" />
			<path
   class="st2"
   d="m 1398.9,360.9 c 3.5,-1.5 7,-3 10.7,-4.6 5.2,13.1 8,26.7 8.4,40.9 -1.1,0 -2,0.1 -2.9,0 -0.3,0 -0.6,-0.5 -0.7,-0.9 -1.9,-7.4 -4.4,-14.5 -7.8,-21.3 -2.4,-4.7 -5.1,-9.3 -7.7,-14.1 z"
   id="path62" />
			<path
   class="st2"
   d="m 1181.9,403.4 c 1.3,0 2.2,0 3.1,0 -0.6,4.5 -1.2,8.9 -1.8,13.3 -0.1,0 -0.1,0 -0.2,0 -0.3,-4.4 -0.7,-8.8 -1.1,-13.3 z"
   id="path64" />
			<path
   class="st2"
   d="m 1416,403.4 c 0.7,0 1.3,0 2.1,0 -0.2,2.9 -0.3,5.7 -0.5,8.5 -0.1,0 -0.2,0 -0.3,0 -0.4,-2.9 -0.9,-5.7 -1.3,-8.5 z"
   id="path66" />
		</g>
	</g>
</g>
</svg>
