<?xml version="1.0" encoding="UTF-8" standalone="no"?>
<svg
   xmlns:dc="http://purl.org/dc/elements/1.1/"
   xmlns:cc="http://creativecommons.org/ns#"
   xmlns:rdf="http://www.w3.org/1999/02/22-rdf-syntax-ns#"
   xmlns:svg="http://www.w3.org/2000/svg"
   xmlns="http://www.w3.org/2000/svg"
   xmlns:sodipodi="http://sodipodi.sourceforge.net/DTD/sodipodi-0.dtd"
   xmlns:inkscape="http://www.inkscape.org/namespaces/inkscape"
   version="1.1"
   id="Livello_1"
   x="0"
   y="0"
   xml:space="preserve"
   width="276.072"
   height="253.7"
   sodipodi:docname="modron_mork_borg_logo.svg"
   inkscape:version="1.0.1 (3bc2e813f5, 2020-09-07)"
   inkscape:export-filename="/home/dario/Pictures/modron_mork_borg_logo.png"
   inkscape:export-xdpi="775.10107"
   inkscape:export-ydpi="775.10107"><metadata
     id="metadata42"><rdf:RDF><cc:Work
         rdf:about=""><dc:format>image/svg+xml</dc:format><dc:type
           rdf:resource="http://purl.org/dc/dcmitype/StillImage" /><dc:title></dc:title></cc:Work></rdf:RDF></metadata><defs
     id="defs40" /><sodipodi:namedview
     pagecolor="#ffffff"
     bordercolor="#666666"
     borderopacity="1"
     objecttolerance="10"
     gridtolerance="10"
     guidetolerance="10"
     inkscape:pageopacity="0"
     inkscape:pageshadow="2"
     inkscape:window-width="1920"
     inkscape:window-height="1016"
     id="namedview38"
     showgrid="false"
     inkscape:zoom="2.394185"
     inkscape:cx="155.08641"
     inkscape:cy="138.53301"
     inkscape:window-x="0"
     inkscape:window-y="27"
     inkscape:window-maximized="1"
     inkscape:current-layer="Livello_1" /><style
     type="text/css"
     id="style2">.st1{fill:#b572ff}.st2{fill:#68ffaa}</style><g
     id="g14"
     transform="translate(-1162.028 -262.1)"><circle
       class="st1"
       cx="1300"
       cy="425"
       r="65"
       id="circle6"
       style="fill:#00002b;fill-opacity:1" /><circle
       class="st2"
       cx="1300"
       cy="425"
       r="54"
       id="circle8"
       style="fill:#f142af;fill-opacity:1" /><circle
       cx="1299.5"
       cy="425.5"
       r="43.5"
       id="circle10"
       fill="#1a1a1a"
       style="fill:#ffe82c;fill-opacity:1" /><ellipse
       transform="rotate(-41.834 1282.023 405.484)"
       cx="1282"
       cy="405.5"
       rx="19.9"
       ry="15.3"
       id="ellipse12"
       fill="#fff" /></g><g
     id="g72"
     transform="translate(-1162.028 -262.1)"><g
       id="g46"><g
         id="g44"><path
           class="st1"
           d="M1428 348.5c6.3 15.7 9.6 31.8 10 48.7h-20c-.4-14.1-3.1-27.7-8.4-40.9 6.2-2.6 12.2-5.2 18.4-7.8z"
           id="path16"
           style="fill:#00002b;fill-opacity:1" /><path
           class="st1"
           d="M1200.2 304.9l14.1 14.1c-9.4 10-17 21.4-22.6 34.2-6.2-2.5-12.3-5-18.5-7.5 6.6-15.3 15.6-28.9 27-40.8z"
           id="path18"
           style="fill:#00002b;fill-opacity:1" /><path
           class="st1"
           d="M1394.7 299.7l-14.1 14.1c-9.8-9.1-21-16.5-33.5-22 2.5-6.2 5-12.3 7.5-18.5 15 6.5 28.3 15.4 40.1 26.4z"
           id="path20"
           style="fill:#00002b;fill-opacity:1" /><path
           class="st1"
           d="M1256.7 290.4c-2.6-6.2-5.2-12.2-7.8-18.3 7-4.4 38.9-11 47-9.7v19.9c-13.5.4-26.5 3.1-39.2 8.1z"
           id="path22"
           fill="#b572fd"
           fill-opacity="1"
           style="fill:#00002b;fill-opacity:1" /><path
           class="st1"
           d="M1341.4 289.6c-12.7-4.7-25.8-7.2-39.4-7.5v-20c16.1.2 31.7 3.2 46.9 8.9-2.5 6.3-4.9 12.4-7.5 18.6z"
           id="path24"
           style="fill:#00002b;fill-opacity:1" /><path
           class="st1"
           d="M1407.2 350.7c-5.6-12.1-13-22.9-22.1-32.3l14.1-14.1c10.9 11.3 19.7 24.2 26.4 38.7-6.1 2.5-12.2 5.1-18.4 7.7z"
           id="path26"
           style="fill:#00002b;fill-opacity:1" /><path
           class="st1"
           d="M1171 351.3c6.1 2.5 12.2 4.9 18.5 7.5-4.6 12.4-7.1 25.1-7.4 38.3h-19.9c-1.1-8.8 4.2-36.1 8.8-45.8z"
           id="path28"
           style="fill:#00002b;fill-opacity:1" /><path
           class="st1"
           d="M1243.3 274.3c2.6 6.2 5.2 12.2 7.8 18.4-12 5.5-22.8 12.8-32.3 21.8-4.7-4.7-9.3-9.3-14.2-14.1 11.4-10.9 24.2-19.5 38.7-26.1z"
           id="path30"
           style="fill:#00002b;fill-opacity:1" /><path
           class="st1"
           d="M1184.6 445.2c-4.4 1.8-8.6 3.7-12.9 5.5-4.4-6.9-10.4-36.6-9.6-47.4h19.9c.1 2.1.2 4.2.4 6.3.2 2.2.5 4.4.7 6.7.1 1.5.1 3.1 0 4.7-.3 8.1.1 16.1 1.5 24.2z"
           id="path32"
           style="fill:#00002b;fill-opacity:1" /><path
           class="st1"
           d="M1429.1 449.1c-4.3-1.7-8.4-3.4-12.4-5 .3-3.2.7-6.3 1-9.5.6-6.9.4-13.7-.2-20.6-.1-1.1 0-2.2.1-3.3.1-2.4.3-4.9.5-7.4h20c-.5 15.7-3.4 31-9 45.8z"
           id="path34"
           style="fill:#00002b;fill-opacity:1" /><path
           class="st1"
           d="M1203.1 491.5c-1.2 1.2-2.3 2.3-3.4 3.5-10.7-11.4-19.3-24.2-25.8-38.6 4-1.7 7.9-3.3 11.9-5.1 1.7 7.3 3.9 14.2 6.8 21 2.9 6.7 6.4 13.1 10.5 19.2z"
           id="path36"
           style="fill:#00002b;fill-opacity:1" /><path
           class="st1"
           d="M1399.8 495.6c-.9-1-1.7-1.9-2.7-2.9 8.9-12.8 15.1-27.1 18.4-42.6 3.8 1.5 7.5 3 11.4 4.6-6.7 15.3-15.7 28.9-27.1 40.9z"
           id="path38"
           style="fill:#00002b;fill-opacity:1" /><path
           class="st1"
           d="M1204 499.4c.9-1 1.8-1.8 2.7-2.8 5.4 7.1 11.4 13.4 18.1 19.2-7.5-4.7-14.4-10.2-20.8-16.4z"
           id="path40"
           style="fill:#00002b;fill-opacity:1" /><path
           class="st1"
           d="M1379.8 512.8c4.6-4.9 9.1-9.8 13.7-14.7l1.9 1.9c-4.9 4.7-10 8.9-15.6 12.8z"
           id="path42"
           style="fill:#00002b;fill-opacity:1" /></g></g><g
       id="g70"><g
         id="g68"><path
           class="st2"
           d="M1302.1 282.3c13.6.3 26.6 2.7 39.4 7.5-.8 1.9-1.5 3.7-2.2 5.5-2.2 5.4-4.4 10.9-6.6 16.3-.3.8-.6 1-1.5.8-9.1-2.4-18.4-3.8-27.8-4-.4 0-.9-.1-1.3-.1v-26z"
           id="path48"
           style="fill:#f142af;fill-opacity:1" /><path
           class="st2"
           d="M1256.7 290.5c12.6-5 25.6-7.6 39.2-8.1v25.9c-2.2.2-4.4.3-6.6.5-7.2.6-14.3 2-21.3 4-1.6.5-1.6.5-2.3-1.1-2.8-6.7-5.7-13.4-8.5-20.1-.2-.3-.3-.7-.5-1.1z"
           id="path50"
           style="fill:#f142af;fill-opacity:1" /><path
           class="st2"
           d="M1366.1 328.2c-8.6-5.8-18-10.5-28.1-13.9 3-7.5 6-14.9 9-22.4 12.5 5.5 23.6 12.8 33.4 21.9-4.7 4.9-9.4 9.6-14.3 14.4z"
           id="path52"
           style="fill:#f142af;fill-opacity:1" /><path
           class="st2"
           d="M1233.3 329.1c-4.7-4.7-9.6-9.6-14.4-14.5 9.5-9 20.2-16.3 32.3-21.8 3.2 7.5 6.3 14.9 9.4 22.1-4.7 2.2-9.4 4.1-14 6.4-4.5 2.4-8.9 5.2-13.3 7.8z"
           id="path54"
           style="fill:#f142af;fill-opacity:1" /><path
           class="st2"
           d="M1203.9 358.2c-3.9-1.6-8-3.2-12.2-4.9 5.6-12.8 13.1-24.1 22.6-34.2l13.7 13.7c-4.2 3.9-8.6 7.7-12.6 11.9-3.9 4.3-7.5 8.9-11.5 13.5z"
           id="path56"
           style="fill:#f142af;fill-opacity:1" /><path
           class="st2"
           d="M1407.3 350.8c-4 1.7-7.8 3.3-11.5 4.9-.7.3-.9-.2-1.2-.6-2.8-3.3-5.4-6.6-8.3-9.8-4.3-4.7-9-8.9-14-12.7-.3-.2-.5-.4-.6-.5l13.6-13.6c8.9 9.4 16.3 20.2 22 32.3z"
           id="path58"
           style="fill:#f142af;fill-opacity:1" /><path
           class="st2"
           d="M1182.1 397.3c.3-13.3 2.8-26 7.4-38.4 3.8 1.5 7.5 3 11.3 4.6-.2.4-.4.7-.6 1-6.1 10-10.6 20.5-13.5 31.8-.2.7-.5 1.1-1.3 1-1-.1-2.1 0-3.3 0z"
           id="path60"
           style="fill:#f142af;fill-opacity:1" /><path
           class="st2"
           d="M1398.9 360.9c3.5-1.5 7-3 10.7-4.6 5.2 13.1 8 26.7 8.4 40.9-1.1 0-2 .1-2.9 0-.3 0-.6-.5-.7-.9-1.9-7.4-4.4-14.5-7.8-21.3-2.4-4.7-5.1-9.3-7.7-14.1z"
           id="path62"
           style="fill:#f142af;fill-opacity:1" /><path
           class="st2"
           d="M1181.9 403.4h3.1c-.6 4.5-1.2 8.9-1.8 13.3h-.2c-.3-4.4-.7-8.8-1.1-13.3z"
           id="path64"
           style="fill:#f142af;fill-opacity:1" /><path
           class="st2"
           d="M1416 403.4h2.1c-.2 2.9-.3 5.7-.5 8.5h-.3c-.4-2.9-.9-5.7-1.3-8.5z"
           id="path66"
           style="fill:#f142af;fill-opacity:1" /></g></g></g></svg>
